<svg width="387" height="359" viewBox="0 0 387 359" fill="none" xmlns="http://www.w3.org/2000/svg">
<g clip-path="url(#clip0_22_1518)">
<path d="M145.864 90.4161V205.395C145.864 214.011 152.897 220.983 161.582 220.983H340.891C347.989 220.983 353.991 216.331 355.948 209.915C356.252 208.921 356.463 207.9 356.556 206.826C356.595 206.349 356.622 205.872 356.622 205.381V90.4161H145.864Z" fill="#1C313A"/>
<path d="M145.864 162.685V165.774C148.375 166.052 150.9 166.119 153.359 166.012C161.806 165.681 170.28 163.613 178.185 160.79C186.58 157.781 194.564 153.698 201.809 148.595C208.802 143.677 214.909 137.738 221.347 132.171C227.719 126.657 234.633 121.487 242.802 118.77C251.686 115.827 261.732 115.257 270.973 116.755C275.401 117.471 279.751 118.756 283.637 120.944C287.444 123.091 290.657 126.047 293.671 129.122C299.593 135.18 305.185 142.007 313.288 145.4C317.294 147.084 321.537 147.667 325.834 146.938C330.289 146.182 334.413 144.114 338.3 141.967C343.812 138.918 350.118 134.915 356.609 134.57V131.522C347.87 131.959 340.692 137.513 333.157 141.198C329.244 143.107 325.014 144.525 320.572 144.167C316.368 143.836 312.482 141.901 309.111 139.554C301.986 134.584 297.081 127.267 290.366 121.845C283.346 116.185 274.767 113.719 265.764 113.149C256.379 112.553 246.702 113.653 238.043 117.338C230.257 120.652 223.66 126.021 217.421 131.522C211.062 137.129 204.915 142.948 197.777 147.654C190.374 152.532 182.27 156.389 173.757 159.067C166.023 161.506 157.788 163.282 149.605 163.003C148.362 162.964 147.106 162.858 145.864 162.699V162.685Z" fill="#FFCD02"/>
<path d="M145.864 88.6399V90.4294H356.609V88.6399C356.609 80.0238 349.563 73.0513 340.877 73.0513H161.582C152.897 73.0513 145.864 80.0238 145.864 88.6399Z" fill="#2C4797"/>
<path d="M316.963 78.5391C314.729 78.5391 312.918 80.3551 312.918 82.5953C312.918 84.8355 314.729 86.6515 316.963 86.6515C319.197 86.6515 321.008 84.8355 321.008 82.5953C321.008 80.3551 319.197 78.5391 316.963 78.5391Z" fill="white"/>
<path d="M329.046 78.5391C326.812 78.5391 325 80.3551 325 82.5953C325 84.8355 326.812 86.6515 329.046 86.6515C331.28 86.6515 333.091 84.8355 333.091 82.5953C333.091 80.3551 331.28 78.5391 329.046 78.5391Z" fill="white"/>
<path d="M341.142 78.5391C338.907 78.5391 337.096 80.3551 337.096 82.5953C337.096 84.8355 338.907 86.6515 341.142 86.6515C343.376 86.6515 345.187 84.8355 345.187 82.5953C345.187 80.3551 343.376 78.5391 341.142 78.5391Z" fill="white"/>
<path d="M103.191 106.376V110.286C109.246 115.39 115.697 119.976 122.809 123.634C126.378 125.464 130.066 127.015 133.821 128.221C135.196 128.658 136.57 129.056 137.958 129.401C140.576 130.05 143.207 130.527 145.864 130.806C152.685 131.522 159.612 130.938 166.42 128.711C174.299 126.127 181.649 122.15 189.713 120.109C197.459 118.147 205.576 117.723 213.494 118.756C229.834 120.877 243.318 129.732 255.281 140.602C259.247 144.207 263.16 147.892 267.033 151.63C267.76 152.333 268.501 153.035 269.215 153.738C277.278 161.545 285.21 169.525 293.234 177.346C304.035 187.871 314.875 199.496 328.742 205.965C337.493 210.047 346.786 211.293 355.921 209.928C356.225 208.934 356.437 207.913 356.529 206.84C356.291 206.893 356.066 206.932 355.842 206.972C340.772 209.517 326.957 203.102 315.443 193.796C309.494 188.998 304.048 183.616 298.575 178.287C292.111 172.004 285.66 165.708 279.208 159.424C276.631 156.919 274.066 154.348 271.488 151.789C270.774 151.073 270.061 150.358 269.333 149.642C260.966 141.344 252.399 133.139 242.63 126.683C229.728 118.133 214.354 113.998 198.9 115.456C191.101 116.198 183.83 118.478 176.612 121.461C168.998 124.615 161.436 127.77 153.108 128.128C150.662 128.234 148.243 128.128 145.864 127.863C142.493 127.492 139.175 126.776 135.923 125.769C134.482 125.331 133.067 124.841 131.666 124.297C124.21 121.434 117.204 117.232 110.872 112.553C108.228 110.604 105.69 108.536 103.218 106.389L103.191 106.376Z" fill="#FFCD02"/>
<path d="M59.263 75.9278C61.4045 72.9585 63.5461 69.9893 65.8859 67.1659C70.3938 61.7311 75.827 56.4819 82.6482 54.1622C88.5177 52.1738 95.4579 52.1208 100.799 55.5938C106.985 59.6235 108.532 67.5635 110.568 74.1383C112.934 81.7735 115.631 89.3159 118.645 96.7125C122.492 106.124 126.828 115.323 131.666 124.271C132.367 125.583 133.094 126.909 133.834 128.208C135.923 131.919 138.091 135.578 140.338 139.183C142.123 142.046 143.96 144.883 145.864 147.68C151.998 156.681 158.845 165.23 166.988 172.468C176.929 181.309 188.986 188.136 202.443 189.17C217.368 190.323 231.618 183.801 243.542 175.318C252.677 168.823 260.767 161.042 269.228 153.711C269.981 153.062 270.748 152.399 271.502 151.763C274.463 149.271 277.477 146.832 280.623 144.552C291.939 136.32 304.788 130.382 318.312 126.869C330.778 123.634 343.786 122.468 356.622 123.409V120.334C340.745 119.207 324.631 121.222 309.587 126.272C295.825 130.899 283.373 138.096 272.149 147.282C271.211 148.051 270.285 148.833 269.36 149.615C268.593 150.278 267.813 150.941 267.047 151.604C256.511 160.75 246.49 170.586 234.368 177.624C227.719 181.495 220.514 184.491 212.886 185.71C205.854 186.837 198.636 186.174 191.867 183.974C178.476 179.639 167.451 169.87 158.475 159.318C153.914 153.976 149.75 148.263 145.877 142.351C143.101 138.123 140.47 133.775 137.972 129.387C137.284 128.181 136.597 126.975 135.936 125.742C134.997 124.032 134.072 122.322 133.16 120.599C125.545 106.23 119.2 91.1717 114.256 75.6759C112.114 68.9686 110.726 61.413 105.914 56.0047C101.684 51.246 95.1142 49.3769 88.9275 49.8144C74.1084 50.8748 64.6697 63.2422 56.6455 74.3901C55.4954 75.9808 58.1393 77.5052 59.2762 75.9278H59.263Z" fill="#2C4797"/>
<path d="M287.576 201.736L221.439 195.572C221.439 195.572 211.379 99.0852 208.101 83.046C206.488 75.212 202.311 66.7417 196.679 59.65L246.741 29.5731C250.363 32.887 253.523 36.5588 256.048 40.6548C272.81 67.7226 273.22 88.4278 278.706 132.171C284.192 175.901 287.576 201.736 287.576 201.736Z" fill="#37BBDB"/>
<path d="M246.728 29.5599L196.666 59.6367C190.757 52.2003 183.248 46.2751 175.462 44.247C160.233 40.2703 153.359 40.6415 153.359 40.6415L138.514 2.06288e-07C138.514 2.06288e-07 213.032 -1.25928 246.728 29.5599Z" fill="#FFA895"/>
<path d="M245.001 139.9C249.657 120.121 237.44 100.302 217.715 95.6339C197.989 90.9655 178.225 103.215 173.569 122.995C168.914 142.774 181.13 162.592 200.855 167.261C220.581 171.929 240.345 159.679 245.001 139.9Z" fill="#233D4D"/>
<path d="M188.536 164.303C188.364 164.303 198.86 192.988 198.86 192.988L233.76 192.404C233.76 192.404 214.446 156.084 214.592 155.912C214.724 155.739 188.536 164.303 188.536 164.303Z" fill="#FFA895"/>
<path d="M191.576 166.039C205.602 166.039 216.971 154.638 216.971 140.575C216.971 126.512 205.602 115.111 191.576 115.111C177.551 115.111 166.182 126.512 166.182 140.575C166.182 154.638 177.551 166.039 191.576 166.039Z" fill="#FFA895"/>
<path d="M200.037 156.919C214.062 156.919 225.432 145.519 225.432 131.455C225.432 117.392 214.062 105.991 200.037 105.991C186.012 105.991 174.642 117.392 174.642 131.455C174.642 145.519 186.012 156.919 200.037 156.919Z" fill="#FFA895"/>
<path d="M181.794 122.388H180.829C180.829 122.388 180.789 122.441 180.776 122.468C179.864 123.475 178.952 124.496 178.04 125.504C177.207 126.418 176.414 127.386 175.541 128.261C174.814 128.976 173.902 129.493 172.844 129.401C171.8 129.308 170.862 128.725 170.214 127.89C169.526 126.988 169.275 125.901 169.13 124.801C169.011 123.86 168.852 122.786 169.169 121.872C169.989 119.486 172.778 119.923 174.788 119.923C177.114 119.923 179.454 119.923 181.781 119.936C183.354 119.936 183.341 122.388 181.781 122.375L181.794 122.388Z" fill="#FFA895"/>
<path d="M229.424 141.808C228.168 144.326 226.767 146.792 225.141 149.085C223.7 151.113 221.968 153.751 219.377 154.321C216.918 154.865 214.182 153.884 211.921 152.969C209.806 152.107 207.797 151.007 205.933 149.668C198.332 144.128 193.493 135.233 193.189 125.795C192.872 115.814 197.314 105.885 204.637 99.178C205.417 98.4622 206.475 99.0189 206.7 99.801C207.427 99.7347 208.14 99.6685 208.868 99.6154C213.719 99.231 218.835 99.178 223.488 100.769C228.142 102.359 231.949 105.633 233.998 110.14C238.77 120.639 234.236 132.211 229.424 141.808Z" fill="#233D4D"/>
<path d="M16.1277 55.8059V153.102C16.1277 157.118 19.3665 160.379 23.3852 160.379H95.9336C99.9391 160.379 103.191 157.118 103.191 153.102V108.165C102.742 107.927 102.319 107.609 101.909 107.29C100.111 105.885 98.3924 104.374 96.7268 102.823C93.4087 99.7215 90.3021 96.4076 87.2617 93.0539C81.1278 86.2539 75.2055 79.2019 68.2256 73.2369C67.9216 72.9851 67.6175 72.7199 67.3135 72.4813C66.5203 71.8186 65.7007 71.169 64.8679 70.546C58.7208 65.8933 51.8863 62.2083 44.8007 59.2125C40.5308 57.4098 36.1552 55.8456 31.7399 54.4273C29.519 53.7115 27.2849 53.0354 25.0376 52.3992C22.9093 51.7762 20.7016 51.3122 18.5997 50.5832C18.5336 50.5567 18.4675 50.5434 18.4147 50.5036C18.0313 50.8748 17.6744 51.2857 17.3703 51.7364C16.5904 52.9029 16.1277 54.2947 16.1277 55.7926V55.8059Z" fill="#FCCA46"/>
<path d="M18.4148 50.5169C18.4148 50.5169 18.547 50.5699 18.5999 50.5964C20.7018 51.3255 22.9094 51.8027 25.0377 52.4124C27.2851 53.062 29.5191 53.7247 31.74 54.4405C36.1553 55.8456 40.531 57.4098 44.8009 59.2258C53.1952 62.7783 61.2591 67.3117 68.2258 73.2502C75.2056 79.2152 81.128 86.2671 87.2618 93.0672C90.3023 96.4341 93.4088 99.748 96.7269 102.837C98.3926 104.387 100.111 105.899 101.909 107.304C102.319 107.622 102.742 107.927 103.191 108.179V55.8059C103.191 51.7894 99.9393 48.5286 95.9338 48.5286H23.3853C22.3542 48.5286 21.3627 48.7407 20.477 49.1383C19.7103 49.4697 19.0097 49.9336 18.4148 50.5036V50.5169Z" fill="#1C313A"/>
<path d="M17.3704 51.7497C30.0346 53.6585 42.2891 57.7279 53.1687 64.7666C65.9651 73.0513 76.4482 84.3318 87.0898 95.1351C92.2719 100.384 97.5729 105.554 103.204 110.286V106.376C94.2019 98.555 86.1645 89.634 77.6776 81.283C67.0491 70.8244 55.535 61.0816 41.681 55.2359C34.8729 52.3594 27.7476 50.4108 20.4902 49.1648C19.2211 49.7216 18.1503 50.6362 17.3836 51.7629L17.3704 51.7497Z" fill="white"/>
<path d="M180.618 126.604C180.552 126.352 180.393 126.127 180.181 125.967C180.102 125.888 180.01 125.835 179.917 125.808C179.824 125.755 179.719 125.729 179.613 125.729C179.507 125.702 179.401 125.702 179.296 125.729C179.137 125.729 178.978 125.782 178.846 125.875C178.582 125.994 178.37 126.166 178.146 126.339C178 126.458 177.855 126.59 177.736 126.75C177.59 126.922 177.458 127.107 177.352 127.293C177.207 127.452 177.075 127.611 176.969 127.823C176.771 128.208 176.665 128.619 176.665 129.056C176.665 129.48 176.903 129.891 177.273 130.116C177.458 130.223 177.67 130.289 177.881 130.289C178.106 130.289 178.304 130.236 178.489 130.116C178.793 129.984 179.058 129.785 179.322 129.573C179.587 129.361 179.785 129.109 179.983 128.844C180.181 128.579 180.314 128.274 180.446 127.969C180.538 127.744 180.604 127.518 180.631 127.28L180.671 126.962L180.631 126.644L180.618 126.604Z" fill="#233D4D"/>
<path d="M185.826 119.618C185.152 119.419 184.451 119.578 183.936 120.069C183.539 120.44 183.394 120.917 183.42 121.408C183.143 121.712 182.984 122.137 183.143 122.534C183.923 124.443 184.161 126.206 183.923 128.247C183.83 129.083 184.769 129.573 185.469 129.427C186.778 129.136 187.082 127.651 187.307 126.537C187.558 125.331 187.717 124.059 187.69 122.826C187.664 121.553 187.201 120.042 185.839 119.631L185.826 119.618Z" fill="#233D4D"/>
<path d="M170.809 136.956C170.677 136.811 170.558 136.638 170.412 136.492L170.346 136.413C170.28 136.333 170.227 136.241 170.161 136.148C169.923 135.79 169.712 135.405 169.527 135.021C169.5 134.981 169.487 134.928 169.46 134.888L169.434 134.809C169.434 134.809 169.394 134.716 169.381 134.663C169.302 134.464 169.249 134.265 169.183 134.067C169.13 133.868 169.077 133.656 169.024 133.457C168.998 133.351 168.985 133.245 168.971 133.152C168.971 133.099 168.958 133.046 168.945 132.993C168.892 132.662 168.826 132.41 168.601 132.184C168.39 131.972 168.046 131.813 167.742 131.826C167.147 131.853 166.446 132.37 166.526 133.046C166.658 134.159 166.936 135.167 167.398 136.187C167.821 137.102 168.403 137.95 169.077 138.693C169.513 139.17 170.373 139.17 170.796 138.693C171.258 138.189 171.258 137.473 170.796 136.97L170.809 136.956Z" fill="#F76D6D"/>
<path d="M16.1277 74.7215V78.1282C20.6091 80.4214 25.3813 82.0253 30.4444 82.7146C37.3714 83.6558 44.4702 83.099 51.1593 81.0709C57.0287 79.2947 62.5809 76.3917 67.3135 72.4813C67.948 71.9511 68.5693 71.4076 69.1774 70.8509C71.861 68.3721 74.1215 65.4824 76.5803 62.7915C78.9334 60.2332 81.5508 57.7147 84.8425 56.4289C85.6092 56.124 86.138 55.4214 85.9001 54.5598C85.7018 53.8175 84.8028 53.1945 84.0361 53.4861C76.2234 56.5614 72.1254 64.2894 66.0312 69.5916C65.6478 69.923 65.2645 70.2544 64.8679 70.5593C54.9004 78.5789 41.1521 81.8 28.6465 79.3477C25.3945 78.7114 22.1822 77.7173 19.1682 76.2989C18.137 75.8085 17.1191 75.2915 16.1277 74.7215Z" fill="#2C4797"/>
<path d="M94.8629 48.7937C97.3085 50.5964 100.402 51.3785 103.389 50.8615C104.989 50.5832 106.575 49.8409 107.739 48.6876C109.047 47.3753 109.603 45.5991 109.92 43.8096C110.515 40.4559 111.414 37.3011 113.079 34.3054C113.991 32.6749 115.062 31.1505 116.278 29.7455C117.138 29.9045 118.129 29.4273 118.089 28.3006C118.089 28.1548 118.076 28.009 118.063 27.8764C118.499 27.4522 118.949 27.0413 119.425 26.6437C120.059 26.1134 119.967 25.0265 119.425 24.483C118.803 23.86 117.904 23.9528 117.27 24.483C117.177 24.5625 117.098 24.6421 117.005 24.7216C116.027 23.184 114.494 22.0042 112.722 21.2486C109.616 19.9363 106.205 19.8966 102.966 20.7449C96.9251 22.3356 91.3862 26.7762 89.4826 32.8738C87.6715 38.6532 90.0246 45.2147 94.8629 48.7804V48.7937Z" fill="#F76D6D"/>
<path d="M95.3124 63.0036C102.139 63.0036 107.673 57.4547 107.673 50.6097C107.673 43.7647 102.139 38.2157 95.3124 38.2157C88.486 38.2157 82.9521 43.7647 82.9521 50.6097C82.9521 57.4547 88.486 63.0036 95.3124 63.0036Z" fill="#2C4797"/>
<path d="M160.246 40.2836C152.011 42.8684 147.45 50.1325 139.558 52.6776C129.934 55.7926 119.901 57.6219 109.788 58.0726C107.924 58.1521 106.02 58.1919 104.249 57.6086C102.477 57.0254 100.838 55.7131 100.349 53.9236C99.4369 50.5964 102.662 47.5344 105.888 46.3016C109.114 45.0689 112.802 44.6579 115.353 42.3382C117.323 40.5487 118.288 37.7253 117.838 35.1007C115.684 22.5609 88.4779 23.7937 90.2097 36.8372C90.5666 39.5015 91.8753 41.9008 92.4173 44.5254C92.9197 46.9777 92.88 49.6818 91.3862 51.7497C90.1436 53.4729 88.1474 54.3345 86.1513 54.4273C81.5642 54.6526 78.1535 50.6627 76.2367 46.6198C73.9365 41.7947 72.9979 36.1479 74.4917 30.8854C75.8798 25.9941 78.9996 21.8584 82.7142 18.7301C86.7065 15.3632 91.3069 12.9507 95.9337 10.7635C100.772 8.48355 105.743 6.52173 110.819 4.94432C122.849 1.193 134.825 -0.318133 147.344 0.609756C148.322 0.676033 149.327 0.755567 150.173 1.21951C151.654 2.01484 151.733 3.83085 152.116 5.27571C152.553 6.89289 152.976 8.51006 153.412 10.1272C154.258 13.3086 155.104 16.4899 155.963 19.6845C157.669 26.0472 159.374 32.4231 161.066 38.7857C161.238 39.4485 160.841 40.098 160.22 40.2836H160.246Z" fill="#FFA895"/>
<path d="M281.736 118.589C287.516 104.595 280.889 88.552 266.933 82.7556C252.978 76.9592 236.978 83.6045 231.198 97.5983C225.417 111.592 232.044 127.635 246 133.432C259.956 139.228 275.955 132.583 281.736 118.589Z" fill="#233D4D"/>
<path d="M246.2 134.504C246.358 133.921 247.085 133.404 247.693 133.656C252.016 135.352 256.709 135.299 261.23 134.57C263.53 134.199 265.804 133.669 268.065 133.112C270.061 132.608 272.07 132.078 273.96 131.283C277.662 129.719 280.464 127.041 281.707 123.171C282.976 119.247 282.831 114.939 282.209 110.909C281.416 105.74 279.737 100.742 277.239 96.1557C276.485 94.7772 278.587 93.5444 279.341 94.923C281.72 99.2973 283.426 104.016 284.324 108.921C285.144 113.361 285.488 118.054 284.43 122.481C283.386 126.842 280.782 130.448 276.842 132.595C272.837 134.769 268.091 135.763 263.649 136.625C258.163 137.685 252.347 138.11 247.046 136.028C246.437 135.79 246.001 135.207 246.2 134.531V134.504Z" fill="#233D4D"/>
<path d="M17.0797 25.0397C17.9654 25.0397 18.5338 25.7423 18.5999 26.5641C18.9304 30.5673 19.2741 34.5837 19.6046 38.5869C19.6707 39.4088 18.8511 40.1113 18.0843 40.1113C17.1986 40.1113 16.6302 39.4088 16.5641 38.5869C16.2336 34.5837 15.8899 30.5673 15.5594 26.5641C15.4933 25.7423 16.3129 25.0397 17.0797 25.0397Z" fill="#FCCA46"/>
<path d="M0.198326 33.0726C0.581691 32.4231 1.62603 32.0254 2.287 32.5291C5.63153 35.0477 8.97605 37.5795 12.3206 40.098C12.9816 40.5885 13.312 41.4103 12.8626 42.1924C12.4792 42.8419 11.4349 43.2396 10.7739 42.7359C7.42938 40.2173 4.08485 37.6855 0.740325 35.167C0.0793512 34.6765 -0.251136 33.8547 0.198326 33.0726Z" fill="#FCCA46"/>
<path d="M1.16332 48.5816C3.3181 47.9718 5.47287 47.3753 7.62764 46.7656C8.39437 46.5535 9.31974 47.0307 9.50481 47.826C9.68988 48.6346 9.26686 49.4697 8.44725 49.7083C6.29248 50.3181 4.1377 50.9146 1.98293 51.5243C1.2162 51.7364 0.290838 51.2592 0.105766 50.4639C-0.079307 49.6553 0.343716 48.8202 1.16332 48.5816Z" fill="#FCCA46"/>
<path d="M36.2743 174.006C38.905 177.996 43.6376 179.891 48.0132 181.27C52.8251 182.781 57.8353 183.669 62.8587 183.961C71.4249 184.464 80.0176 183.165 88.055 180.209C88.0947 180.222 88.1343 180.249 88.174 180.275C89.0993 180.647 90.1569 180.66 91.0955 180.355C93.1313 179.692 94.6515 177.876 94.8895 175.742C95.1406 173.502 93.9641 171.235 92.2852 169.804C88.359 166.476 82.4632 167.152 77.7306 167.709C72.6807 168.292 67.5252 169.34 62.4224 168.703C59.9504 168.398 57.637 167.577 55.5087 166.331C53.3539 165.071 51.371 163.547 49.1633 162.38C45.4354 160.405 40.2798 159.531 36.8956 162.685C33.8023 165.562 34.0667 170.692 36.2611 174.019L36.2743 174.006Z" fill="#F76D6D"/>
<path d="M65.5686 237.752L97.7845 246.142L101.34 247.07L113.463 250.225C114.467 245.904 115.446 241.41 116.411 236.757C116.662 235.538 116.913 234.345 117.151 233.152C117.495 231.495 117.812 229.878 118.129 228.287C122.796 204.652 125.043 188.163 125.043 188.163L83.8379 192.974C83.8379 192.974 74.1613 216.012 65.5818 237.738L65.5686 237.752Z" fill="#FFA895"/>
<path d="M113.463 250.238C103.323 293.968 91.3466 319.856 75.4965 317.046C58.0864 313.958 45.0388 301.007 53.2613 271.394C55.0459 264.965 60.0825 251.63 65.5686 237.765L113.463 250.238Z" fill="#37BBDB"/>
<path d="M85.2524 322.547C104.622 322.547 120.324 306.802 120.324 287.38C120.324 267.958 104.622 252.213 85.2524 252.213C65.8831 252.213 50.1812 267.958 50.1812 287.38C50.1812 306.802 65.8831 322.547 85.2524 322.547Z" fill="#37BBDB"/>
<path d="M163.221 198.025L61.8142 275.503C61.8142 275.503 100.613 318.822 101.658 318.61C102.702 318.398 216.257 240.31 216.257 240.31L163.221 198.025Z" fill="#37BBDB"/>
<path d="M168.905 250.119C168.31 252.518 167.993 255.023 167.993 257.608C167.993 262.513 169.13 267.139 171.153 271.262C171.615 272.189 172.104 273.104 172.66 273.979C178.119 282.741 187.809 288.573 198.874 288.573C201.306 288.573 203.672 288.282 205.946 287.751C207.083 288.852 208.233 290.124 209.291 291.582C213.772 297.693 216.257 306.508 216.257 306.508L292.084 304.506C292.084 304.506 281.932 206.296 278.243 198.661C274.555 191.026 229.794 188.706 207.638 189.17C196.032 189.409 186.963 190.429 180.961 191.344C178.08 191.49 175.303 192.02 172.686 192.895C172.633 192.895 172.593 192.921 172.593 192.921C160.365 197.044 151.561 208.629 151.561 222.282C151.561 234.517 158.647 245.095 168.918 250.119H168.905Z" fill="#37BBDB"/>
<path d="M210.864 158.178C210.864 158.178 220.659 185.061 213.309 207.807C207.44 225.954 215.279 252.598 237.752 256.601C260.225 260.591 270.523 258.947 278.23 278.035C285.937 297.11 329.971 309.676 354.837 299.642C383.127 288.215 398.752 255.474 376.292 226.206C349.272 190.986 226.317 98.8599 226.317 98.8599L210.851 158.178H210.864Z" fill="#233D4D"/>
<path d="M205.536 204.825C207.096 200.305 208.881 195.851 210.163 191.251C211.353 186.996 212.04 182.622 212.199 178.221C212.529 169.432 210.877 160.525 207.255 152.505C206.805 151.498 206.316 150.517 205.814 149.536C205.087 148.144 207.189 146.898 207.916 148.29C211.961 156.071 214.248 164.687 214.618 173.449C214.803 177.783 214.512 182.131 213.759 186.386C212.966 190.893 211.551 195.214 210.004 199.509C206.99 207.913 203.315 216.967 205.074 226.073C206.607 233.987 212.476 239.66 218.809 244.101C222.616 246.779 226.608 249.363 230.812 251.378C235.174 253.486 240.118 254.851 244.851 253.207C246.331 252.69 246.992 255.05 245.512 255.554C236.787 258.563 227.943 252.969 220.871 248.409C214.354 244.194 207.612 239.17 204.36 231.853C200.486 223.131 202.549 213.467 205.523 204.811L205.536 204.825Z" fill="#233D4D"/>
<path d="M254.118 242.391C261.983 245.851 270.378 249.748 275.414 257.065C278.23 261.148 279.301 265.986 280.2 270.784C281.059 275.411 282.024 279.944 284.258 284.133C288.33 291.741 295.217 297.574 303.043 301.06C312.416 305.235 323.11 305.885 333.17 304.493C342.371 303.234 352.233 300.49 359.318 294.167C360.164 293.412 360.971 292.59 361.737 291.741C362.782 290.562 364.513 292.285 363.469 293.465C356.992 300.729 347.447 304.281 338.141 306.124C327.724 308.191 316.699 308.298 306.52 304.984C297.94 302.187 290.194 296.898 284.827 289.581C282.169 285.949 280.226 281.826 279.116 277.465C277.86 272.534 277.476 267.378 275.626 262.606C272.321 254.096 263.821 249.469 255.968 245.89C254.964 245.426 253.946 244.976 252.928 244.525C252.32 244.26 252.174 243.385 252.478 242.855C252.835 242.232 253.536 242.139 254.144 242.404L254.118 242.391Z" fill="#233D4D"/>
<path d="M218.544 156.296C218.544 161.426 214.407 165.575 209.291 165.575C204.175 165.575 200.037 161.426 200.037 156.296C200.037 151.166 204.175 147.017 209.291 147.017C214.407 147.017 218.544 151.166 218.544 156.296Z" fill="#FFA895"/>
<path d="M209.634 154.493C208.273 154.493 206.924 154.493 205.563 154.493C204.928 154.493 204.307 154.493 203.672 154.493C202.919 154.493 201.98 154.334 201.385 154.918C199.997 156.27 202.126 157.781 203.012 158.629C203.99 159.557 204.968 160.498 205.959 161.426C206.422 161.863 207.229 161.917 207.678 161.426C208.114 160.949 208.167 160.167 207.678 159.703C206.911 158.974 206.131 158.231 205.365 157.502C205.166 157.317 204.981 157.131 204.783 156.946H205.999C207.215 156.946 208.418 156.946 209.634 156.946C210.269 156.946 210.877 156.389 210.851 155.726C210.824 155.063 210.322 154.507 209.634 154.507V154.493Z" fill="#F76D6D"/>
<path d="M216.257 306.508C216.257 306.508 207.612 312.725 200.936 325.371C194.26 338.016 188.549 359 188.549 359H373.172C373.172 359 351.44 336.545 335.841 325.795C309.389 307.568 292.084 304.506 292.084 304.506L216.257 306.508Z" fill="#233D4D"/>
<path d="M70.8827 271.964C71.4908 272.574 72.4162 272.508 73.0375 271.964C76.4481 268.955 79.872 265.946 83.2958 262.95C89.3107 257.661 95.3255 252.372 101.34 247.083C106.602 242.444 111.876 237.805 117.151 233.178C117.495 231.521 117.812 229.904 118.129 228.314C118.037 228.367 117.931 228.433 117.838 228.512C114.414 231.521 111.004 234.53 107.58 237.539C104.315 240.416 101.05 243.279 97.7711 246.156C88.8083 254.043 79.8323 261.93 70.8695 269.817C70.2482 270.36 70.3143 271.421 70.8695 271.977L70.8827 271.964Z" fill="white"/>
<path d="M171.153 271.262C171.615 272.189 172.104 273.104 172.66 273.979C179.018 268.531 185.483 263.202 192.039 257.993C192.687 257.476 192.568 256.362 192.039 255.832C191.418 255.209 190.532 255.315 189.885 255.832C187.32 257.873 184.769 259.941 182.231 262.009C178.516 265.058 174.814 268.133 171.166 271.262H171.153Z" fill="white"/>
<path d="M124.646 192.55C122.386 197.852 116.292 199.668 110.964 199.178C104.632 198.608 98.9478 195.466 93.5278 192.351C89.1125 189.806 84.0759 186.651 82.9258 181.283C82.8862 181.111 82.8862 180.951 82.9258 180.806C82.8201 180.766 82.7143 180.713 82.6218 180.673C77.3869 178.459 71.8347 176.962 66.8774 174.138C64.4054 172.733 61.9862 170.983 60.2677 168.69C58.5756 166.423 57.7295 163.388 59.1704 160.777C60.3734 158.603 62.8058 157.502 65.1853 157.224C67.9878 156.906 70.6714 158.006 73.0905 159.345C75.7212 160.816 78.1933 162.473 80.9958 163.613C83.7719 164.74 86.6802 165.549 89.6017 166.172C95.524 167.444 101.565 168.014 107.527 169.114C112.762 170.082 119.24 171.235 122.743 175.702C124.62 178.088 125.241 181.044 125.572 184C125.889 186.863 125.849 189.886 124.699 192.577L124.646 192.55Z" fill="#FFA895"/>
<path d="M124.29 193.014C123.285 198.051 121.593 202.929 119.306 207.516C118.764 208.589 118.209 209.676 117.204 210.379C116.239 211.055 115.036 211.121 113.886 211.227C111.097 211.492 108.294 211.691 105.491 211.837C102.742 211.983 99.9922 212.062 97.2293 212.089C94.8102 212.115 91.968 212.42 89.7603 211.187C88.6895 210.591 87.8832 209.65 87.1164 208.722C86.2704 207.675 85.4111 206.627 84.5518 205.58C82.8465 203.486 81.1544 201.378 79.4227 199.297C77.2679 196.686 74.862 193.982 71.7554 192.59C62.1581 193.253 52.336 191.768 43.4922 187.937C39.1297 186.042 35.0449 183.51 31.4492 180.382C29.6117 178.778 27.8668 177.015 26.3994 175.053C24.9056 173.064 23.7026 170.559 24.1785 168.001C24.6148 165.694 26.6241 164.09 28.8582 163.706C31.3435 163.282 33.6965 164.077 35.772 165.442C37.94 166.861 39.8436 168.637 42.0645 170.002C44.1531 171.288 46.3872 172.322 48.7139 173.117C57.8617 176.259 67.7499 176.1 77.3076 175.676C77.3737 175.623 77.4398 175.583 77.5191 175.543C78.537 175.079 79.5813 174.88 80.705 175.04C82.1988 175.252 83.6133 176.034 84.6444 177.134C88.3987 175.411 92.51 174.39 96.6212 173.953C101.75 173.409 106.972 173.661 112.075 174.39C115.948 174.933 120.231 176.1 122.769 179.308C125.863 183.218 125.188 188.441 124.29 193.001V193.014Z" fill="#FFA895"/>
<path d="M85.1863 121.103H29.8099C27.8534 121.103 27.8534 118.054 29.8099 118.054H85.1863C87.1427 118.054 87.1427 121.103 85.1863 121.103Z" fill="white"/>
<path d="M85.1333 130.13H64.4051C62.3825 130.13 62.3825 127.081 64.4051 127.081H85.1333C87.1558 127.081 87.1558 130.13 85.1333 130.13Z" fill="white"/>
<path d="M29.8495 127.068H57.4914C59.514 127.068 59.514 130.116 57.4914 130.116H29.8495C27.8269 130.116 27.8269 127.068 29.8495 127.068Z" fill="white"/>
<path d="M47.5636 135.405H85.1598C87.1427 135.405 87.1427 138.454 85.1598 138.454H47.5636C45.5807 138.454 45.5807 135.405 47.5636 135.405Z" fill="white"/>
<path d="M30.061 135.405H38.9313C39.7377 135.405 40.5044 136.108 40.478 136.93C40.4383 137.752 39.8038 138.454 38.9313 138.454H30.061C29.2546 138.454 28.4879 137.752 28.5143 136.93C28.554 136.108 29.1885 135.405 30.061 135.405Z" fill="white"/>
</g>
<defs>
<clipPath id="clip0_22_1518">
<rect width="387" height="359" fill="white"/>
</clipPath>
</defs>
</svg>
