<svg width="1439" height="543" viewBox="0 0 1439 543" fill="none" xmlns="http://www.w3.org/2000/svg">
<path d="M1439 91.44L1226.22 50.688L986.066 157.878L753.74 207.738L551.492 128.556L321.974 148.266L-1 114.408V339.588H1439V91.44Z" fill="#99E2FF"/>
<path d="M127.07 128.43C146.873 128.43 162.926 112.377 162.926 92.574C162.926 72.7713 146.873 56.718 127.07 56.718C107.267 56.718 91.2139 72.7713 91.2139 92.574C91.2139 112.377 107.267 128.43 127.07 128.43Z" fill="#99E2FF"/>
<path d="M117.998 118.998C117.998 53.28 64.718 0 -1 0V238.014C64.718 238.014 117.998 184.734 117.998 119.016V118.998Z" fill="#99E2FF"/>
<path d="M1320 118.998C1320 184.716 1373.28 237.996 1439 237.996V0C1373.28 0 1320 53.28 1320 118.998Z" fill="#99E2FF"/>
<path d="M285.568 199.143C326.433 189.31 351.589 148.211 341.756 107.347C331.922 66.482 290.823 41.3263 249.959 51.1596C209.094 60.993 183.938 102.092 193.772 142.956C203.605 183.821 244.704 208.977 285.568 199.143Z" fill="#99E2FF"/>
<path d="M246.571 178.578C262.316 139.608 243.488 95.2518 204.518 79.5066C165.547 63.7615 121.191 82.5895 105.446 121.56C89.7012 160.531 108.529 204.886 147.5 220.631C186.47 236.377 230.826 217.549 246.571 178.578Z" fill="#99E2FF"/>
<path d="M430.866 250.324C471.731 240.491 496.886 199.392 487.053 158.528C477.22 117.663 436.121 92.5072 395.256 102.341C354.392 112.174 329.236 153.273 339.069 194.137C348.903 235.002 390.001 260.158 430.866 250.324Z" fill="#99E2FF"/>
<path d="M180.285 176.942C196.118 138.007 177.391 93.6089 138.456 77.7754C99.5216 61.9419 55.1232 80.6691 39.2897 119.604C23.4562 158.539 42.1834 202.937 81.1181 218.77C120.053 234.604 164.451 215.877 180.285 176.942Z" fill="#99E2FF"/>
<path d="M518.786 205.002C552.297 205.002 579.464 177.836 579.464 144.324C579.464 110.812 552.297 83.646 518.786 83.646C485.274 83.646 458.108 110.812 458.108 144.324C458.108 177.836 485.274 205.002 518.786 205.002Z" fill="#99E2FF"/>
<path d="M599.606 165.186C617.182 165.186 631.43 150.938 631.43 133.362C631.43 115.786 617.182 101.538 599.606 101.538C582.03 101.538 567.782 115.786 567.782 133.362C567.782 150.938 582.03 165.186 599.606 165.186Z" fill="#99E2FF"/>
<path d="M774.062 223.38C802.782 223.38 826.064 200.098 826.064 171.378C826.064 142.658 802.782 119.376 774.062 119.376C745.342 119.376 722.06 142.658 722.06 171.378C722.06 200.098 745.342 223.38 774.062 223.38Z" fill="#99E2FF"/>
<path d="M459.512 152.316C488.232 152.316 511.514 129.034 511.514 100.314C511.514 71.5941 488.232 48.312 459.512 48.312C430.792 48.312 407.51 71.5941 407.51 100.314C407.51 129.034 430.792 152.316 459.512 152.316Z" fill="#99E2FF"/>
<path d="M1258.19 123.246C1286.91 123.246 1310.19 99.9639 1310.19 71.244C1310.19 42.5241 1286.91 19.242 1258.19 19.242C1229.47 19.242 1206.19 42.5241 1206.19 71.244C1206.19 99.9639 1229.47 123.246 1258.19 123.246Z" fill="#99E2FF"/>
<path d="M966.785 210.67C991.909 206.254 1008.7 182.307 1004.28 157.183C999.863 132.059 975.916 115.273 950.792 119.689C925.668 124.106 908.882 148.053 913.298 173.176C917.715 198.3 941.662 215.087 966.785 210.67Z" fill="#99E2FF"/>
<path d="M981.079 275.875C1022.24 266.59 1048.09 225.692 1038.81 184.526C1029.52 143.36 988.622 117.515 947.456 126.8C906.29 136.085 880.445 176.983 889.73 218.149C899.014 259.315 939.913 285.16 981.079 275.875Z" fill="#99E2FF"/>
<path d="M1292.52 214.352C1333.55 204.479 1358.8 163.215 1348.93 122.186C1339.06 81.1572 1297.79 55.9003 1256.76 65.7732C1215.74 75.6461 1190.48 116.91 1200.35 157.939C1210.22 198.968 1251.49 224.225 1292.52 214.352Z" fill="#99E2FF"/>
<path d="M1123.27 273.017C1164.3 263.144 1189.56 221.88 1179.69 180.851C1169.81 139.822 1128.55 114.565 1087.52 124.438C1046.49 134.311 1021.24 175.575 1031.11 216.604C1040.98 257.633 1082.25 282.89 1123.27 273.017Z" fill="#99E2FF"/>
<path d="M353.696 176.45C376.732 172.747 392.405 151.072 388.703 128.036C385.001 104.999 363.325 89.3259 340.289 93.0281C317.253 96.7303 301.579 118.406 305.282 141.442C308.984 164.479 330.659 180.152 353.696 176.45Z" fill="#99E2FF"/>
<path d="M221.912 81.3862C229.861 63.3361 221.673 42.259 203.623 34.3093C185.573 26.3595 164.496 34.5475 156.546 52.5976C148.597 70.6477 156.785 91.7247 174.835 99.6744C192.885 107.624 213.962 99.4362 221.912 81.3862Z" fill="#99E2FF"/>
<path d="M667.016 205.647C696.1 199.561 714.744 171.049 708.657 141.965C702.57 112.881 674.059 94.2384 644.975 100.325C615.891 106.412 597.248 134.923 603.335 164.007C609.421 193.091 637.933 211.734 667.016 205.647Z" fill="#99E2FF"/>
<path d="M1370.64 178.29C1405.53 178.29 1433.82 150.003 1433.82 115.11C1433.82 80.2166 1405.53 51.93 1370.64 51.93C1335.74 51.93 1307.46 80.2166 1307.46 115.11C1307.46 150.003 1335.74 178.29 1370.64 178.29Z" fill="#99E2FF"/>
<path d="M1238.58 146.069C1254.02 112.337 1239.19 72.4707 1205.46 57.0265C1171.73 41.5824 1131.86 56.4084 1116.42 90.1413C1100.97 123.874 1115.8 163.74 1149.53 179.184C1183.27 194.628 1223.13 179.802 1238.58 146.069Z" fill="#99E2FF"/>
<path d="M1314.69 114.822C1333.06 114.822 1347.96 99.9292 1347.96 81.558C1347.96 63.1868 1333.06 48.294 1314.69 48.294C1296.32 48.294 1281.43 63.1868 1281.43 81.558C1281.43 99.9292 1296.32 114.822 1314.69 114.822Z" fill="#99E2FF"/>
<path d="M859.238 232.65C889.598 232.65 914.21 208.038 914.21 177.678C914.21 147.318 889.598 122.706 859.238 122.706C828.878 122.706 804.266 147.318 804.266 177.678C804.266 208.038 828.878 232.65 859.238 232.65Z" fill="#99E2FF"/>
<path d="M1044.42 193.174C1076.67 185.677 1096.73 153.46 1089.23 121.217C1081.73 88.9728 1049.52 68.912 1017.27 76.4094C985.029 83.9068 964.968 116.123 972.465 148.367C979.963 180.611 1012.18 200.672 1044.42 193.174Z" fill="#99E2FF"/>
<path d="M1124.44 160.778C1139.55 143.474 1137.77 117.195 1120.46 102.084C1103.16 86.9722 1076.88 88.7498 1061.77 106.054C1046.66 123.359 1048.44 149.637 1065.74 164.748C1083.05 179.86 1109.32 178.082 1124.44 160.778Z" fill="#99E2FF"/>
<path d="M900.188 168.066C915.686 168.066 928.25 155.502 928.25 140.004C928.25 124.506 915.686 111.942 900.188 111.942C884.69 111.942 872.126 124.506 872.126 140.004C872.126 155.502 884.69 168.066 900.188 168.066Z" fill="#99E2FF"/>
<path d="M710.27 185.76C725.768 185.76 738.332 173.196 738.332 157.698C738.332 142.2 725.768 129.636 710.27 129.636C694.772 129.636 682.208 142.2 682.208 157.698C682.208 173.196 694.772 185.76 710.27 185.76Z" fill="#99E2FF"/>
<path d="M394.406 127.242C409.904 127.242 422.468 114.678 422.468 99.18C422.468 83.6818 409.904 71.118 394.406 71.118C378.908 71.118 366.344 83.6818 366.344 99.18C366.344 114.678 378.908 127.242 394.406 127.242Z" fill="#99E2FF"/>
<path d="M1439 189.09L1137.73 185.184L760.454 239.184L499.742 222.984L-1 202.356V367.038H1439V189.09Z" fill="#CAF1FF"/>
<path d="M102.314 235.239C127.807 231.101 145.119 207.08 140.981 181.586C136.843 156.093 112.822 138.781 87.3283 142.919C61.8349 147.057 44.5231 171.079 48.6613 196.572C52.7994 222.065 76.8205 239.377 102.314 235.239Z" fill="#CAF1FF"/>
<path d="M94.814 181.134C94.814 128.214 51.92 85.32 -1 85.32V276.93C51.92 276.93 94.814 234.036 94.814 181.116V181.134Z" fill="#CAF1FF"/>
<path d="M1439 85.338C1386.08 85.338 1343.19 128.232 1343.19 181.152C1343.19 234.072 1386.08 276.966 1439 276.966V85.338Z" fill="#CAF1FF"/>
<path d="M329.264 307.908C369.058 307.908 401.318 275.648 401.318 235.854C401.318 196.06 369.058 163.8 329.264 163.8C289.47 163.8 257.21 196.06 257.21 235.854C257.21 275.648 289.47 307.908 329.264 307.908Z" fill="#CAF1FF"/>
<path d="M194.534 233.609C212.1 216.043 212.1 187.562 194.534 169.995C176.967 152.429 148.486 152.429 130.92 169.995C113.353 187.562 113.353 216.043 130.92 233.609C148.486 251.176 176.967 251.176 194.534 233.609Z" fill="#CAF1FF"/>
<path d="M279.05 229.221C298.992 209.278 298.992 176.945 279.05 157.002C259.107 137.06 226.774 137.06 206.832 157.002C186.889 176.945 186.889 209.278 206.832 229.221C226.774 249.163 259.107 249.163 279.05 229.221Z" fill="#CAF1FF"/>
<path d="M525.68 248.328C554.4 248.328 577.682 225.046 577.682 196.326C577.682 167.606 554.4 144.324 525.68 144.324C496.96 144.324 473.678 167.606 473.678 196.326C473.678 225.046 496.96 248.328 525.68 248.328Z" fill="#CAF1FF"/>
<path d="M581.804 248.328C610.524 248.328 633.806 225.046 633.806 196.326C633.806 167.606 610.524 144.324 581.804 144.324C553.084 144.324 529.802 167.606 529.802 196.326C529.802 225.046 553.084 248.328 581.804 248.328Z" fill="#CAF1FF"/>
<path d="M719 262.44C743.246 262.44 762.902 242.784 762.902 218.538C762.902 194.292 743.246 174.636 719 174.636C694.754 174.636 675.098 194.292 675.098 218.538C675.098 242.784 694.754 262.44 719 262.44Z" fill="#CAF1FF"/>
<path d="M1229.73 210.618C1258.45 210.618 1281.73 187.336 1281.73 158.616C1281.73 129.896 1258.45 106.614 1229.73 106.614C1201.01 106.614 1177.73 129.896 1177.73 158.616C1177.73 187.336 1201.01 210.618 1229.73 210.618Z" fill="#CAF1FF"/>
<path d="M1195.34 219.83C1216.71 198.453 1216.71 163.795 1195.34 142.419C1173.96 121.042 1139.3 121.042 1117.92 142.419C1096.55 163.795 1096.55 198.453 1117.92 219.83C1139.3 241.206 1173.96 241.206 1195.34 219.83Z" fill="#CAF1FF"/>
<path d="M932.12 250.686C960.84 250.686 984.122 227.404 984.122 198.684C984.122 169.964 960.84 146.682 932.12 146.682C903.4 146.682 880.118 169.964 880.118 198.684C880.118 227.404 903.4 250.686 932.12 250.686Z" fill="#CAF1FF"/>
<path d="M442.934 253.188C482.728 253.188 514.988 220.928 514.988 181.134C514.988 141.34 482.728 109.08 442.934 109.08C403.14 109.08 370.88 141.34 370.88 181.134C370.88 220.928 403.14 253.188 442.934 253.188Z" fill="#CAF1FF"/>
<path d="M645.164 270.774C669.112 270.774 688.526 251.36 688.526 227.412C688.526 203.464 669.112 184.05 645.164 184.05C621.216 184.05 601.802 203.464 601.802 227.412C601.802 251.36 621.216 270.774 645.164 270.774Z" fill="#CAF1FF"/>
<path d="M1345.98 212.22C1367.6 212.22 1385.13 194.692 1385.13 173.07C1385.13 151.448 1367.6 133.92 1345.98 133.92C1324.35 133.92 1306.83 151.448 1306.83 173.07C1306.83 194.692 1324.35 212.22 1345.98 212.22Z" fill="#CAF1FF"/>
<path d="M1281.95 288.827C1315.88 280.687 1336.79 246.582 1328.65 212.651C1320.51 178.721 1286.41 157.813 1252.48 165.953C1218.55 174.093 1197.64 208.197 1205.78 242.128C1213.92 276.059 1248.02 296.966 1281.95 288.827Z" fill="#CAF1FF"/>
<path d="M1085.86 188.244C1106.25 188.244 1122.78 171.715 1122.78 151.326C1122.78 130.937 1106.25 114.408 1085.86 114.408C1065.47 114.408 1048.94 130.937 1048.94 151.326C1048.94 171.715 1065.47 188.244 1085.86 188.244Z" fill="#CAF1FF"/>
<path d="M1039.94 275.652C1079.73 275.652 1111.99 243.392 1111.99 203.598C1111.99 163.804 1079.73 131.544 1039.94 131.544C1000.15 131.544 967.886 163.804 967.886 203.598C967.886 243.392 1000.15 275.652 1039.94 275.652Z" fill="#CAF1FF"/>
<path d="M907.826 199.912C914.092 184.603 906.761 167.113 891.452 160.846C876.143 154.58 858.652 161.911 852.386 177.22C846.12 192.529 853.451 210.02 868.76 216.286C884.069 222.552 901.56 215.221 907.826 199.912Z" fill="#CAF1FF"/>
<path d="M790.442 293.904C820.802 293.904 845.414 269.292 845.414 238.932C845.414 208.572 820.802 183.96 790.442 183.96C760.082 183.96 735.47 208.572 735.47 238.932C735.47 269.292 760.082 293.904 790.442 293.904Z" fill="#CAF1FF"/>
<path d="M871.316 300.672C901.676 300.672 926.288 276.06 926.288 245.7C926.288 215.34 901.676 190.728 871.316 190.728C840.956 190.728 816.344 215.34 816.344 245.7C816.344 276.06 840.956 300.672 871.316 300.672Z" fill="#CAF1FF"/>
<path d="M783.08 268.29C798.578 268.29 811.142 255.726 811.142 240.228C811.142 224.73 798.578 212.166 783.08 212.166C767.582 212.166 755.018 224.73 755.018 240.228C755.018 255.726 767.582 268.29 783.08 268.29Z" fill="#CAF1FF"/>
<path d="M1287.1 232.884C1307.29 232.884 1323.66 216.516 1323.66 196.326C1323.66 176.136 1307.29 159.768 1287.1 159.768C1266.91 159.768 1250.54 176.136 1250.54 196.326C1250.54 216.516 1266.91 232.884 1287.1 232.884Z" fill="#CAF1FF"/>
<path fill-rule="evenodd" clip-rule="evenodd" d="M1013.47 270.257C1000.9 270.147 988.492 275.688 980.23 286.098C976.091 282.115 970.466 279.666 964.268 279.666C959.185 279.666 954.487 281.313 950.678 284.103C941.293 274.869 928.417 269.172 914.21 269.172C900.475 269.172 887.984 274.497 878.688 283.195C873.669 275.582 865.042 270.558 855.242 270.558C850.789 270.558 846.579 271.595 842.839 273.441C840.158 267.05 836.216 261.063 831.012 255.859C809.544 234.392 774.738 234.392 753.27 255.859C751.57 257.56 750.004 259.344 748.573 261.199C739.856 254.6 728.994 250.686 717.218 250.686C710.053 250.686 703.227 252.135 697.016 254.756C690.512 248.013 682.578 242.434 673.418 238.529C637.9 223.386 596.998 238.962 580.341 273.338C574.235 271.914 567.716 271.835 561.198 273.358C549.114 276.181 539.469 283.938 533.895 294C533.255 286.865 530.205 279.905 524.743 274.443C512.371 262.072 492.313 262.072 479.941 274.443C478.902 275.482 477.95 276.575 477.086 277.714C464.919 254.421 438.088 241.449 411.374 247.858C411.234 247.891 411.094 247.925 410.955 247.96C395.102 221.749 366.326 204.228 333.458 204.228C312.894 204.228 293.931 211.087 278.733 222.641C269.196 215.853 256.888 213.064 244.607 215.994C238.76 217.39 233.493 219.944 228.991 223.356C216.947 214.307 201.975 208.944 185.75 208.944C173.743 208.944 162.421 211.881 152.465 217.076C144.06 204.643 129.833 196.47 113.696 196.47C93.3801 196.47 76.09 209.425 69.6361 227.524C49.8797 212.929 25.447 204.3 -1 204.3V261.612V442.314V542.5H1439L1439 442.296L1439 256.014L1439 204.3C1418.01 204.3 1398.28 209.737 1381.16 219.279C1376.48 212.798 1368.31 209.327 1360.05 210.978C1344.63 194.929 1320.35 189.131 1298.58 198.244C1284.28 204.233 1273.8 215.516 1268.48 228.864C1263.47 205.375 1242.6 187.758 1217.62 187.758C1210.13 187.758 1203.02 189.339 1196.59 192.185C1177.94 179.698 1154.04 175.356 1130.88 182.359C1111.16 188.319 1095.56 201.415 1086.04 217.966C1079.01 214.141 1070.94 211.968 1062.37 211.968C1034.95 211.968 1012.72 234.194 1012.72 261.612C1012.72 264.561 1012.98 267.449 1013.47 270.257Z" fill="white"/>
</svg>
